#define OTA_width 32
#define OTA_height 32
static unsigned char OTA_bits[] = {
   0x00, 0x00, 0x00, 0x00, 0x00, 0x00, 0x00, 0x00, 0x00, 0xfc, 0x03, 0x00,
   0x80, 0x4f, 0x1f, 0x00, 0xe0, 0x00, 0x70, 0x00, 0x38, 0x00, 0xc0, 0x00,
   0x0c, 0x00, 0x80, 0x03, 0x06, 0xf8, 0x00, 0x06, 0x01, 0xff, 0x07, 0x04,
   0xc0, 0x03, 0x1c, 0x00, 0x60, 0x00, 0x30, 0x00, 0x30, 0x00, 0x60, 0x00,
   0x18, 0x00, 0x80, 0x00, 0x00, 0xfc, 0x01, 0x00, 0x00, 0x07, 0x47, 0x00,
   0x80, 0x01, 0xcc, 0x00, 0x80, 0x00, 0xf0, 0x19, 0x00, 0x00, 0xdc, 0x31,
   0x00, 0x70, 0x44, 0x40, 0x00, 0xf8, 0x06, 0x40, 0x00, 0xf8, 0x02, 0xc0,
   0x00, 0xfc, 0x02, 0x80, 0x00, 0xf8, 0x06, 0x44, 0x00, 0xf8, 0x0c, 0x66,
   0x00, 0x20, 0x38, 0x1f, 0x00, 0x00, 0x00, 0x0f, 0x00, 0x00, 0x00, 0x04,
   0x00, 0x00, 0x00, 0x00, 0x00, 0x00, 0x00, 0x00, 0x00, 0x00, 0x00, 0x00,
   0x00, 0x00, 0x00, 0x00, 0x00, 0x00, 0x00, 0x00 };
